<?xml version="1.0" standalone="no"?>
<!DOCTYPE svg PUBLIC "-//W3C//DTD SVG 20010904//EN"
 "http://www.w3.org/TR/2001/REC-SVG-20010904/DTD/svg10.dtd">
<svg version="1.0" xmlns="http://www.w3.org/2000/svg"
 width="628.000000pt" height="628.000000pt" viewBox="0 0 628.000000 628.000000"
 preserveAspectRatio="xMidYMid meet">
<metadata>
Created by potrace 1.14, written by Peter Selinger 2001-2017
</metadata>
<g transform="translate(0.000000,628.000000) scale(0.100000,-0.100000)"
fill="#000000" stroke="none">
<path d="M3007 6024 c-1 -1 -51 -5 -111 -8 -60 -4 -112 -9 -115 -11 -3 -1 -34
-6 -69 -9 -174 -17 -542 -108 -677 -167 -11 -4 -56 -22 -99 -39 -365 -142
-775 -421 -1067 -725 -135 -140 -329 -385 -329 -415 0 -4 -4 -10 -8 -12 -21
-8 -252 -442 -252 -472 0 -4 -8 -26 -19 -49 -26 -58 -100 -268 -107 -302 -1
-5 -9 -38 -18 -72 -18 -70 -45 -205 -48 -245 -1 -16 -5 -28 -8 -28 -13 0 -18
-390 -6 -540 11 -147 14 -169 31 -264 49 -278 124 -510 244 -755 70 -143 203
-361 258 -421 13 -14 23 -30 23 -37 0 -6 3 -13 8 -15 4 -1 22 -21 40 -43 139
-167 269 -298 417 -420 33 -28 62 -53 63 -57 2 -5 9 -8 17 -8 7 0 18 -7 25
-15 7 -9 31 -28 54 -43 23 -16 64 -44 92 -64 28 -20 64 -43 80 -52 16 -9 43
-25 59 -36 78 -50 317 -169 430 -215 50 -20 99 -40 110 -45 100 -44 407 -133
502 -145 26 -4 59 -9 73 -11 129 -24 872 -24 1082 1 32 3 66 9 183 31 137 25
502 162 710 266 123 61 321 172 335 188 12 13 70 50 79 50 5 0 11 3 13 8 2 4
41 36 88 71 146 109 332 282 450 417 90 102 232 301 304 424 53 91 180 351
190 390 1 3 13 37 28 75 38 100 48 136 64 215 3 14 9 41 14 60 5 19 11 55 14
80 4 25 8 56 10 70 20 116 35 326 36 505 1 142 -12 392 -25 466 -3 14 -7 43
-10 65 -2 21 -7 50 -10 64 -2 14 -6 36 -9 50 -9 57 -55 214 -81 275 -7 17 -27
64 -44 105 -17 41 -31 79 -30 84 0 5 -3 12 -8 15 -4 3 -31 52 -59 107 -91 179
-251 418 -376 562 -59 68 -292 297 -343 337 -27 22 -52 42 -55 45 -15 16 -106
85 -182 138 -274 191 -594 345 -921 443 -70 21 -138 41 -150 43 -12 3 -33 7
-47 10 -30 7 -116 24 -150 31 -14 3 -45 8 -70 11 -25 2 -73 9 -107 15 -34 5
-97 12 -140 15 -79 6 -371 12 -376 8z m348 -268 c171 -15 176 -16 270 -32 17
-3 41 -7 55 -9 233 -34 594 -158 810 -278 107 -59 120 -67 187 -109 62 -38
251 -173 263 -187 3 -3 28 -24 55 -45 58 -47 299 -286 335 -334 14 -18 35 -44
47 -58 38 -41 158 -214 216 -310 136 -223 280 -583 311 -774 3 -19 8 -46 11
-60 3 -14 8 -41 11 -60 2 -19 7 -46 9 -60 23 -117 23 -503 0 -610 -3 -14 -8
-47 -11 -75 -3 -27 -24 -117 -45 -200 -40 -154 -41 -156 -53 -190 -90 -243
-163 -392 -284 -580 -25 -38 -49 -71 -54 -73 -4 -2 -8 -8 -8 -13 0 -6 -4 -15
-10 -22 -5 -7 -50 -61 -99 -122 -132 -163 -298 -327 -456 -448 -238 -184 -485
-321 -775 -429 -58 -22 -114 -41 -125 -44 -11 -2 -31 -8 -45 -13 -32 -13 -260
-67 -320 -76 -25 -4 -56 -9 -70 -12 -29 -5 -66 -10 -165 -20 -92 -10 -448 -10
-550 0 -94 9 -101 10 -248 33 -260 41 -650 182 -898 325 -41 23 -83 47 -94 53
-54 30 -207 138 -301 214 -143 114 -326 297 -419 417 -16 21 -35 43 -41 49 -5
6 -39 54 -75 106 -35 52 -66 97 -69 100 -3 3 -11 16 -18 29 -8 13 -23 40 -35
60 -42 73 -136 261 -130 261 3 0 1 6 -5 13 -29 35 -136 365 -157 482 -2 17 -7
41 -10 55 -25 110 -39 271 -38 440 1 120 8 245 13 245 1 0 3 18 5 40 3 41 13
109 19 135 1 8 6 29 10 45 4 17 12 50 18 75 23 100 82 278 123 374 51 118 144
300 156 304 5 2 9 8 9 13 0 14 111 179 177 264 133 170 327 366 493 497 30 23
57 46 58 50 2 5 8 8 13 8 5 0 35 19 66 43 48 36 141 95 258 165 20 11 230 115
270 133 102 45 388 139 440 144 11 1 38 7 60 13 22 6 58 14 79 16 21 3 46 7
55 10 15 4 44 8 146 20 22 3 71 8 109 11 38 3 71 6 72 8 4 4 317 -2 379 -7z"/>
<path d="M3947 4324 c-1 -1 -24 -5 -52 -8 -69 -10 -92 -15 -155 -38 -50 -18
-128 -56 -140 -68 -3 -3 -23 -18 -45 -34 -45 -33 -159 -147 -191 -192 -65 -91
-94 -134 -94 -140 0 -3 -8 -18 -18 -32 -50 -73 -111 -264 -128 -402 -11 -81
-11 -446 -1 -519 47 -331 147 -523 362 -691 101 -80 272 -163 381 -185 108
-22 160 -26 239 -21 98 6 106 7 198 31 34 9 69 18 77 20 8 2 29 9 45 16 17 7
33 13 36 13 25 3 183 95 212 123 51 48 64 79 61 140 -4 65 -28 96 -70 91 -31
-4 -113 -40 -155 -69 -84 -58 -267 -100 -443 -101 -179 -1 -268 30 -373 131
-119 112 -192 252 -238 453 -39 169 -42 433 -6 588 5 25 12 56 15 70 25 131
118 312 206 401 122 124 353 186 570 155 67 -10 195 -54 248 -85 68 -39 147
-71 176 -71 14 0 36 10 47 21 18 18 21 29 16 71 -14 116 -94 194 -262 257 -57
22 -67 25 -116 36 -11 2 -28 6 -37 9 -18 6 -47 10 -132 22 -49 6 -228 13 -233
8z"/>
<path d="M1654 4275 c-2 -5 -3 -509 -2 -1120 l3 -1110 90 -1 c113 -2 140 10
156 69 8 29 12 172 13 459 1 229 4 420 8 423 3 3 169 7 369 9 442 3 466 8 475
89 14 111 -40 122 -646 142 -63 2 -117 4 -120 5 -3 1 -15 1 -27 1 -11 -1 -24
2 -27 7 -3 5 -8 81 -11 168 -3 88 -8 211 -11 274 -2 63 -6 161 -8 218 l-4 102
76 1 c43 1 104 3 137 4 33 1 137 6 230 10 235 9 261 11 334 25 86 15 102 33
102 108 0 41 -5 48 -40 66 -58 30 -125 34 -1010 59 -50 2 -85 -1 -87 -8z"/>
</g>
</svg>
